<svg xmlns="http://www.w3.org/2000/svg" viewBox="0 0 62.211841 26.458332">
  <g transform="translate(-24.634978,-64.922614)">
    <g transform="matrix(3.4012714,0,0,3.4013605,-59.155265,-219.43861)">
      <path d="m 24.634977,91.380951 v -7.77875 h 2.137834 q 0.486833,0 0.9525,0.169333 0.465666,0.169334 0.79375,0.53975 0.328083,0.370417 0.465666,0.846667 0.137584,0.47625 0.137584,0.963083 0,0.486834 -0.137584,0.963084 -0.137583,0.465666 -0.465666,0.836083 -0.232834,0.264583 -0.53975,0.423333 1.143,1.767417 1.143,3.037417 h -1.481667 q 0,-1.121833 -1.195917,-2.751667 h -0.328083 v 2.751667 z m 1.481667,-4.085167 h 0.656167 q 0.275166,0 0.497416,-0.179916 0.22225,-0.1905 0.296334,-0.455084 0.07408,-0.264583 0.07408,-0.53975 0,-0.275166 -0.07408,-0.53975 -0.07408,-0.275166 -0.296334,-0.455083 -0.22225,-0.1905 -0.497416,-0.1905 h -0.656167 z" />
    </g>
    <path d="m 47.348377,90.416728 c -0.983911,0 -1.943828,-0.108 -2.879745,-0.324 -0.911922,-0.216 -1.739839,-0.587961 -2.483783,-1.115928 -0.743928,-0.527944 -1.343872,-1.187928 -1.799833,-1.979878 -0.431945,-0.81595 -0.695939,-1.703888 -0.791928,-2.663827 -0.072,-0.959939 -0.02389,-1.919884 0.143944,-2.879817 l 0.575945,-3.2398 c 0.168,-0.983939 0.479944,-1.943878 0.935916,-2.879822 0.455945,-0.935939 1.079906,-1.763883 1.871839,-2.483839 0.791923,-0.743956 1.679845,-1.271917 2.663761,-1.5839 1.007906,-0.336 1.991823,-0.503944 2.951734,-0.503944 1.1519,0 2.2438,0.203944 3.275705,0.611961 1.055911,0.408 1.895834,1.055927 2.519778,1.943877 0.647939,0.863945 1.031906,1.871878 1.151894,3.023806 0.143945,1.127933 0.12,2.255861 -0.072,3.383789 l -0.575955,3.1318 H 44.432582 c 0,0.408 0.04778,0.81595 0.143945,1.223928 0.168,0.599961 0.515944,1.055933 1.043905,1.367911 0.527945,0.288 1.1039,0.432 1.72785,0.432 1.295878,0 2.315789,-0.539945 3.059723,-1.6199 l 4.218377,2.297105 c -0.551944,0.863945 -0.954666,1.338667 -1.770594,1.986622 -0.815928,0.647962 -1.703845,1.127934 -2.663761,1.439917 -0.959911,0.288 -1.907828,0.432 -2.843745,0.432 z M 45.224566,78.321489 h 5.291527 c 0.02389,-0.336 0.02389,-0.683961 0,-1.043933 -0.04778,-0.551945 -0.264,-1.019939 -0.647944,-1.403917 -0.359944,-0.383944 -0.815928,-0.575961 -1.367878,-0.575961 -0.599944,0 -1.163894,0.192 -1.691844,0.575961 -0.527945,0.384 -0.923922,0.85195 -1.1879,1.403917 -0.168,0.336 -0.299945,0.683955 -0.396,1.043933 z" />
    <g transform="matrix(3.4012714,0,0,3.4013605,-58.432965,-219.43861)">
      <path d="m 33.502674,91.380951 v -0.783167 q 0,-2.106083 1.354667,-6.995583 h 1.693333 q 1.354667,4.8895 1.354667,6.995583 v 0.783167 h -1.481667 v -0.783167 q 0,-0.306916 -0.02117,-0.687916 h -1.397 q -0.02117,0.381 -0.02117,0.687916 v 0.783167 z m 1.640417,-2.804583 h 1.121833 q -0.179917,-1.386417 -0.560917,-3.312584 -0.381,1.926167 -0.560916,3.312584 z" />
    </g>
    <g transform="matrix(3.4012714,0,0,3.4013605,-58.064483,-219.43861)">
      <path d="m 38.117703,91.380951 v -7.77875 h 1.894416 q 0.455083,0 0.889,0.148167 0.4445,0.137583 0.783167,0.455083 0.338666,0.306917 0.53975,0.719667 0.211666,0.402166 0.296333,0.846666 0.08467,0.4445 0.08467,0.899584 v 1.640416 q 0,0.455084 -0.08467,0.899584 -0.08467,0.4445 -0.296333,0.85725 -0.201084,0.402166 -0.53975,0.719666 -0.338667,0.306917 -0.783167,0.455084 -0.433917,0.137583 -0.889,0.137583 z m 1.481666,-1.3335 h 0.41275 q 0.296333,0 0.529167,-0.169333 0.243416,-0.179917 0.359833,-0.4445 0.127,-0.264584 0.169333,-0.550334 0.05292,-0.28575 0.05292,-0.5715 v -1.640416 q 0,-0.28575 -0.05292,-0.5715 -0.04233,-0.28575 -0.169333,-0.550334 -0.116417,-0.264583 -0.359833,-0.433916 -0.232834,-0.179917 -0.529167,-0.179917 h -0.41275 z" />
    </g>
  </g>
</svg>
